<svg width="15" height="17" viewBox="0 0 15 17" fill="none" xmlns="http://www.w3.org/2000/svg">
<path d="M5.125 7.70825H3.54167V9.29159H5.125V7.70825ZM8.29167 7.70825H6.70833V9.29159H8.29167V7.70825ZM11.4583 7.70825H9.875V9.29159H11.4583V7.70825ZM13.0417 2.16659H12.25V0.583252H10.6667V2.16659H4.33333V0.583252H2.75V2.16659H1.95833C1.07958 2.16659 0.382917 2.87909 0.382917 3.74992L0.375 14.8333C0.375 15.7041 1.07958 16.4166 1.95833 16.4166H13.0417C13.9125 16.4166 14.625 15.7041 14.625 14.8333V3.74992C14.625 2.87909 13.9125 2.16659 13.0417 2.16659ZM13.0417 14.8333H1.95833V6.12492H13.0417V14.8333Z" fill="#91938E"/>
</svg>
