<svg width="19" height="21" viewBox="0 0 19 21" fill="none" xmlns="http://www.w3.org/2000/svg">
<path fill-rule="evenodd" clip-rule="evenodd" d="M13.0648 0.0366211H9.59272C9.59272 0.0366211 9.54771 13.5709 9.51678 13.8967C9.41963 14.6166 9.05229 15.2704 8.4916 15.7214C7.9753 16.1616 7.32862 16.4132 6.65499 16.4358C4.99023 16.4177 3.63437 15.0715 3.57804 13.3809C3.61898 11.8581 4.73363 10.5868 6.21764 10.3702C6.37514 10.3574 6.59874 10.3517 6.8139 10.3474V6.76091C6.29306 6.75278 5.77243 6.78767 5.25714 6.86522C2.53551 7.44734 0.467834 9.70496 0.0918674 12.505C-0.228084 14.6464 0.542893 16.8066 2.13942 18.2419C4.25721 20.278 7.4554 20.6188 9.94288 19.0735C11.9116 17.9294 13.1185 15.7939 13.0986 13.4895C13.1408 11.1361 13.1323 7.23815 13.1422 7.05954C14.576 8.07248 16.2744 8.62815 18.0206 8.6556V5.15342C15.1447 4.66189 13.3376 3.13728 13.0648 0.0366211Z" fill="white"/>
</svg>
