<svg width="23" height="24" viewBox="0 0 23 24" fill="none" xmlns="http://www.w3.org/2000/svg">
<path d="M11.6004 5.66413C8.4789 5.66413 5.96111 8.29695 5.96111 11.561C5.96111 14.8251 8.4789 17.4579 11.6004 17.4579C14.7219 17.4579 17.2397 14.8251 17.2397 11.561C17.2397 8.29695 14.7219 5.66413 11.6004 5.66413ZM11.6004 15.3948C9.5832 15.3948 7.93412 13.6755 7.93412 11.561C7.93412 9.44656 9.57829 7.72727 11.6004 7.72727C13.6225 7.72727 15.2667 9.44656 15.2667 11.561C15.2667 13.6755 13.6176 15.3948 11.6004 15.3948ZM18.7857 5.42291C18.7857 6.18761 18.1967 6.79834 17.4703 6.79834C16.739 6.79834 16.155 6.18248 16.155 5.42291C16.155 4.66334 16.744 4.04748 17.4703 4.04748C18.1967 4.04748 18.7857 4.66334 18.7857 5.42291ZM22.5207 6.81887C22.4372 4.97641 22.0348 3.34437 20.744 1.99973C19.4581 0.655088 17.8973 0.234247 16.1354 0.141867C14.3194 0.0340911 8.87645 0.0340911 7.0605 0.141867C5.30344 0.229115 3.74269 0.649956 2.45189 1.9946C1.16109 3.33923 0.763545 4.97128 0.675201 6.81374C0.572133 8.71266 0.572133 14.4043 0.675201 16.3032C0.758637 18.1457 1.16109 19.7777 2.45189 21.1223C3.74269 22.467 5.29853 22.8878 7.0605 22.9802C8.87645 23.088 14.3194 23.088 16.1354 22.9802C17.8973 22.893 19.4581 22.4721 20.744 21.1223C22.0299 19.7777 22.4323 18.1457 22.5207 16.3032C22.6237 14.4043 22.6237 8.71779 22.5207 6.81887ZM20.1746 18.3407C19.7918 19.3466 19.0507 20.1216 18.0838 20.527C16.636 21.1275 13.2004 20.9889 11.6004 20.9889C10.0004 20.9889 6.55988 21.1223 5.11693 20.527C4.15497 20.1267 3.41386 19.3517 3.02613 18.3407C2.45189 16.8267 2.58441 13.2341 2.58441 11.561C2.58441 9.88793 2.4568 6.29026 3.02613 4.78139C3.40895 3.77547 4.15006 3.00051 5.11693 2.59506C6.56479 1.9946 10.0004 2.13316 11.6004 2.13316C13.2004 2.13316 16.6409 1.99973 18.0838 2.59506C19.0458 2.99538 19.7869 3.77034 20.1746 4.78139C20.7489 6.29539 20.6164 9.88793 20.6164 11.561C20.6164 13.2341 20.7489 16.8318 20.1746 18.3407Z" fill="white"/>
</svg>
