<svg width="17" height="20" viewBox="0 0 17 20" fill="none" xmlns="http://www.w3.org/2000/svg">
<path fill-rule="evenodd" clip-rule="evenodd" d="M12.3155 0C9.96039 0.0950031 8.03866 2.56592 8.307 4.60932C10.4837 4.77849 12.5721 2.33841 12.3155 0ZM12.0312 19.974C14.0513 19.9374 16.0122 16.5731 16.6672 14.673C13.3204 13.1088 12.8346 8.85284 15.9522 6.81778C14.7771 5.09939 12.9463 4.86438 12.2946 4.83688C11.3424 4.74059 10.4185 5.10496 9.66349 5.40273C9.18352 5.59203 8.77181 5.75441 8.46444 5.75441C8.12345 5.75441 7.70137 5.58676 7.22749 5.39854C6.60694 5.15207 5.89758 4.87032 5.16517 4.88355C2.75676 4.91938 0 6.88028 0 10.8362C0 15.143 3.30844 20.0815 5.45184 19.999C6.03988 19.9758 6.45821 19.7976 6.89082 19.6133C7.3901 19.4006 7.90841 19.1798 8.72862 19.1798C9.51172 19.1798 10.0071 19.3942 10.4833 19.6003C10.9385 19.7972 11.3763 19.9867 12.0312 19.974Z" fill="white"/>
</svg>
