<svg width="19" height="20" viewBox="0 0 19 20" fill="none" xmlns="http://www.w3.org/2000/svg">
<path fill-rule="evenodd" clip-rule="evenodd" d="M0.98291 19.72L9.75865 10.9692L12.852 14.0534L2.41956 19.8375C2.0229 20.0575 1.53707 20.0541 1.14291 19.8283L0.98291 19.72ZM8.8739 10.0868L0.507324 18.4292V1.74437L8.8739 10.0868ZM14.1022 6.63934L18.1897 8.90514C18.5913 9.12848 18.8405 9.5468 18.8405 10.0001C18.8405 10.4535 18.5913 10.8718 18.1897 11.0951L13.9906 13.4226L10.6448 10.0868L14.1022 6.63934ZM0.890621 0.360967C0.96562 0.288467 1.04979 0.225135 1.14312 0.171802C1.53728 -0.0540291 2.02311 -0.0573624 2.41977 0.162635L12.9638 6.00841L9.75886 9.20421L0.890621 0.360967Z" fill="white"/>
</svg>
