<svg width="22" height="17" viewBox="0 0 22 17" fill="none" xmlns="http://www.w3.org/2000/svg">
<path d="M19.0477 4.2367C19.061 4.42263 19.061 4.6086 19.061 4.79453C19.061 10.4656 14.7304 17 6.81536 17C4.37688 17 2.11165 16.2961 0.206177 15.0742C0.552638 15.1141 0.885728 15.1273 1.24552 15.1273C3.25756 15.1273 5.10975 14.45 6.58883 13.2945C4.69668 13.2547 3.11101 12.0195 2.56467 10.3195C2.83119 10.3593 3.09768 10.3859 3.37753 10.3859C3.76394 10.3859 4.15039 10.3328 4.51014 10.2399C2.53805 9.84138 1.05894 8.11484 1.05894 6.02968V5.97657C1.63189 6.29533 2.29819 6.49454 3.00436 6.52107C1.84509 5.75075 1.0856 4.43592 1.0856 2.94841C1.0856 2.15155 1.29876 1.42108 1.67188 0.783574C3.79056 3.3867 6.97524 5.08667 10.5463 5.27264C10.4797 4.95389 10.4397 4.62189 10.4397 4.28985C10.4397 1.92576 12.3585 0 14.7436 0C15.9829 0 17.1021 0.517967 17.8883 1.35469C18.861 1.16876 19.7938 0.810147 20.62 0.318752C20.3001 1.31487 19.6206 2.15159 18.7278 2.6828C19.5939 2.58988 20.4334 2.35076 21.2062 2.01876C20.62 2.86873 19.8871 3.62573 19.0477 4.2367Z" fill="white"/>
</svg>
