<svg width="25" height="18" viewBox="0 0 25 18" fill="none" xmlns="http://www.w3.org/2000/svg">
<path d="M23.9418 2.67213C23.6658 1.62512 22.8525 0.800537 21.8199 0.520701C19.9483 0.012207 12.4433 0.012207 12.4433 0.012207C12.4433 0.012207 4.93833 0.012207 3.06665 0.520701C2.03407 0.800581 1.22082 1.62512 0.944802 2.67213C0.443298 4.56989 0.443298 8.52938 0.443298 8.52938C0.443298 8.52938 0.443298 12.4889 0.944802 14.3866C1.22082 15.4336 2.03407 16.2239 3.06665 16.5037C4.93833 17.0122 12.4433 17.0122 12.4433 17.0122C12.4433 17.0122 19.9483 17.0122 21.8199 16.5037C22.8525 16.2239 23.6658 15.4336 23.9418 14.3866C24.4433 12.4889 24.4433 8.52938 24.4433 8.52938C24.4433 8.52938 24.4433 4.56989 23.9418 2.67213ZM9.98874 12.1243V4.93446L16.2614 8.52947L9.98874 12.1243Z" fill="white"/>
</svg>
